/* XPM */
static char *_1d[] = {
/* columns rows colors chars-per-pixel */
"20 20 37 1 ",
"  c red",
". c #FF0709",
"X c #FF1000",
"o c #FF1200",
"O c #FF180B",
"+ c #FF181A",
"@ c #FF1A1B",
"# c #FF2E00",
"$ c #FF6307",
"% c #FF6A12",
"& c #FF6D17",
"* c #FF6351",
"= c #FF6953",
"- c #FF7651",
"; c #FE9E11",
": c #FE9F15",
"> c #FF9722",
", c #FFA529",
"< c #FEA82C",
"1 c #FFAE3B",
"2 c #FFAF3D",
"3 c #FF9252",
"4 c #FFAD53",
"5 c #FFAF53",
"6 c #FFBB53",
"7 c #FFBC54",
"8 c #FF846B",
"9 c #FF956E",
"0 c #FFA064",
"q c #FFA167",
"w c #FFB27A",
"e c #FFC763",
"r c #FFC66C",
"t c #FFCF76",
"y c #FFC27C",
"u c #FFD076",
"i c None",
/* pixels */
"iiiiiiiiiiiiiiiiiiii",
"iiiiiiiiiiiiiiiiiiii",
"iiiiiiiiiiiiiiiiiiii",
"iiiiiiiiiiiiiiiiiiii",
"iiiiiiiiiiiiiiiiiiii",
"iiiiiiiiiiiiiiiiiiii",
"iiiiiiiii76iiiiiiiii",
"iiiiiii1tuer2iiiiiii",
"iiiiiiiy>%$&wiiiiiii",
"iiiiii,3#XXX-<iiiiii",
"iiiiiii9O  .8iiiiiii",
"iiiiiii5=@@*4iiiiiii",
"iiiiiii:i00i;iiiiiii",
"iiiiiiiiiiiiiiiiiiii",
"iiiiiiiiiiiiiiiiiiii",
"iiiiiiiiiiiiiiiiiiii",
"iiiiiiiiiiiiiiiiiiii",
"iiiiiiiiiiiiiiiiiiii",
"iiiiiiiiiiiiiiiiiiii",
"iiiiiiiiiiiiiiiiiiii"
};
