/* XPM */
static char *_1n[] = {
/* columns rows colors chars-per-pixel */
"20 20 41 1 ",
"  c #573D2A",
". c #583D2A",
"X c #5A3F2C",
"o c #5B3F2C",
"O c #5B402C",
"+ c #5D412D",
"@ c #5F422E",
"# c #5F432E",
"$ c #60432F",
"% c #61442F",
"& c #62452F",
"* c #664731",
"= c #664831",
"- c #674831",
"; c #674832",
": c #6B4B34",
"> c #6D4C34",
", c #6E4D35",
"< c #6F4D35",
"1 c #755138",
"2 c #78553C",
"3 c #7C573C",
"4 c #7B5940",
"5 c #89654B",
"6 c #906545",
"7 c #916546",
"8 c #926748",
"9 c #936849",
"0 c #946B4D",
"q c #9B765C",
"w c #AC8366",
"e c #B19078",
"r c #C0906F",
"t c #C39A7D",
"y c #C6A186",
"u c #C9A78F",
"i c #D1AE95",
"p c #D2B49F",
"a c #E0C0A8",
"s c #E5C5AD",
"d c None",
/* pixels */
"dddddddddddddddddddd",
"dddddddddddddddddddd",
"dddddddddddddddddddd",
"dddddddddddddddddddd",
"dddddddddddddddddddd",
"dddddddddsaddddddddd",
"dddddddipuytrd3ddddd",
"ddddddwe07789ddddddd",
"ddddddq4>,,,,1dddddd",
"dddddd5:=====,dddddd",
"dddddd2*@$@@$ddddddd",
"ddddddd&XXXo&ddddddd",
"ddddddddo  @dddddddd",
"dddddddddddddddddddd",
"dddddddddddddddddddd",
"dddddddddddddddddddd",
"dddddddddddddddddddd",
"dddddddddddddddddddd",
"dddddddddddddddddddd",
"dddddddddddddddddddd"
};
