/* XPM */
static char *_2d[] = {
/* columns rows colors chars-per-pixel */
"20 20 51 1 ",
"  c #FF0000",
". c #FF231B",
"X c #FF5606",
"o c #FF5B0F",
"O c #FF4030",
"+ c #FC7978",
"@ c #FDAB32",
"# c #FF8446",
"$ c #FEAF48",
"% c #FEB442",
"& c #FFB94D",
"* c #FFA754",
"= c #FE8967",
"- c #FFC762",
"; c #FFC966",
": c #FFCD6D",
"> c #898989",
", c #8C8C8C",
"< c #8E8E8E",
"1 c #A3A3A3",
"2 c #FB9C99",
"3 c #F7DCB3",
"4 c #D8D8D8",
"5 c #D8D9D9",
"6 c #D9D9D9",
"7 c #DDDCDB",
"8 c #FECEC8",
"9 c #FCEED6",
"0 c #E0E0E0",
"q c #E6E6E7",
"w c #E7E7E8",
"e c #E8E7E8",
"r c #EBEBEC",
"t c #EDEDED",
"y c #F3F3F3",
"u c #F3F6F5",
"i c #F4F4F5",
"p c #F6F6F6",
"a c #F7F6F7",
"s c #F7F7F7",
"d c #FAF2F1",
"f c #F3F7F8",
"g c #F7F8F9",
"h c #F9F9F9",
"j c #F9F9FA",
"k c #FAFAFA",
"l c #FAFBFB",
"z c #FCFCFD",
"x c #FEFEFE",
"c c #FEFFFF",
"v c None",
/* pixels */
"vvvvvvvvvvvvvvvvvvvv",
"vvvvvvvvvvvvvvvvvvvv",
"vvvvvvvvvvvvvvvvvvvv",
"vvvvvvvvvvvvvvvvvvvv",
"vvvvvvvvvvvvvvvvvvvv",
"vvvvvvvvvvvvvv%vvvvv",
"vvvvvvqeervv@;:-&vvv",
"vvvvvtijjjjg9*oX#vvv",
"vvvvviccccccc8. O$vv",
"vvvvijjjjjljjd2+=vvv",
"vvvisiyyiyyyyyif3vvv",
"vvvv0666666666667vvv",
"vvvv1<>>>>>>>>><vvvv",
"vvvvvvvvvvvvvvvvvvvv",
"vvvvvvvvvvvvvvvvvvvv",
"vvvvvvvvvvvvvvvvvvvv",
"vvvvvvvvvvvvvvvvvvvv",
"vvvvvvvvvvvvvvvvvvvv",
"vvvvvvvvvvvvvvvvvvvv",
"vvvvvvvvvvvvvvvvvvvv"
};
