/* XPM */
static char *_2n[] = {
/* columns rows colors chars-per-pixel */
"20 20 58 1 ",
"  c #5E4938",
". c #614B39",
"X c #624B39",
"o c #624D3B",
"O c #644E3C",
"+ c #67513E",
"@ c #6B533F",
"# c #665242",
"$ c #6B5440",
"% c #6C5440",
"& c #6D5541",
"* c #7E6855",
"= c #94755C",
"- c #94765D",
"; c #95765D",
": c #967860",
"> c #977A62",
", c #9C8C7F",
"< c #AB8E77",
"1 c #868686",
"2 c #878787",
"3 c #898989",
"4 c #929292",
"5 c #9E9E9E",
"6 c #A3958A",
"7 c #B09985",
"8 c #B5A69B",
"9 c #BFB1A6",
"0 c #C3A993",
"q c #C6AF9D",
"w c #C8B3A1",
"e c #CDB5A2",
"r c #CFBBAB",
"t c #C8BDB5",
"y c #CEC7C2",
"u c #D9CFC6",
"i c #D9D9D9",
"p c #D9DADA",
"a c #DADADA",
"s c #DADBDB",
"d c #DFDFDF",
"f c #E6E6E6",
"g c #EEEAE7",
"h c #F1EFEC",
"j c #F3F1F0",
"k c #F3F3F3",
"l c #F4F4F4",
"z c #F5F5F5",
"x c #F7F7F7",
"c c #F9F9F9",
"v c #FAFAFA",
"b c #FBFBFB",
"n c #FBFBFC",
"m c #FCFCFC",
"M c #FDFDFD",
"N c #FEFEFE",
"B c white",
"V c None",
/* pixels */
"VVVVVVVVVVVVVVVVVVVV",
"VVVVVVVVVVVVVVVVVVVV",
"VVVVVVVVVVVVVVVVVVVV",
"VVVVVVVVVVVVVVVVVVVV",
"VVVVVVVVVVVVVVVVVVVV",
"VVVVVVVVVVVwrwq0VVVV",
"VVVVVBbBBV<7:--:-VVV",
"VVVVbBBBBhuw*@%$%VVV",
"VVVxnBBBBBBBt+.oOVVV",
"VVVnbbbnbbnng8,# VVV",
"VVbzjkzjjkkkzzj6.VVV",
"VVfdiiiiiiiiiiiyVVVV",
"VVV532222222224VVVVV",
"VVVVVVVVVVVVVVVVVVVV",
"VVVVVVVVVVVVVVVVVVVV",
"VVVVVVVVVVVVVVVVVVVV",
"VVVVVVVVVVVVVVVVVVVV",
"VVVVVVVVVVVVVVVVVVVV",
"VVVVVVVVVVVVVVVVVVVV",
"VVVVVVVVVVVVVVVVVVVV"
};
