/* XPM */
static char *_3n[] = {
/* columns rows colors chars-per-pixel */
"20 20 33 1 ",
"  c #9B9B9B",
". c #9D9D9D",
"X c #A0A0A0",
"o c #B3B3B3",
"O c #D7D7D8",
"+ c #DFDEDF",
"@ c #E3E3E3",
"# c #E4E4E4",
"$ c #E6E6E7",
"% c #E7E6E8",
"& c #E7E7E8",
"* c #E9E8E9",
"= c #E9E9E9",
"- c #EAE9EA",
"; c #EAEAEA",
": c #ECECED",
"> c #F0F0F0",
", c #F1F1F1",
"< c #F2F1F2",
"1 c #F2F2F3",
"2 c #F4F4F4",
"3 c #F4F4F5",
"4 c #F5F5F5",
"5 c #F6F6F6",
"6 c #F7F7F7",
"7 c #F9F9F9",
"8 c #FAFAFA",
"9 c #FBFBFB",
"0 c #FCFCFC",
"q c #FDFDFD",
"w c #FEFEFE",
"e c #FFFFFF",
"r c None",
/* pixels */
"rrrrrrrrrrrrrrrrrrrr",
"rrrrrrrrrrrrrrrrrrrr",
"rrrrrrrrrrrrrrrrrrrr",
"rrrrrrrrrrrrrrrrrrrr",
"rrrrrrrrrrrrrrrrrrrr",
"rrrrrr---*rrrrrrrrrr",
"rrrrr-4q84>rrrrrrrrr",
"rrrrr>qqqq04:%rrrrrr",
"rrrr>80qqqqq4>rrrrrr",
"rrr44444444444>-rrrr",
"rrrr-#########@+Orrr",
"rrrro.         Xrrrr",
"rrrrrrrrrrrrrrrrrrrr",
"rrrrrrrrrrrrrrrrrrrr",
"rrrrrrrrrrrrrrrrrrrr",
"rrrrrrrrrrrrrrrrrrrr",
"rrrrrrrrrrrrrrrrrrrr",
"rrrrrrrrrrrrrrrrrrrr",
"rrrrrrrrrrrrrrrrrrrr",
"rrrrrrrrrrrrrrrrrrrr"
};
