/* XPM */
static char *_4d[] = {
/* columns rows colors chars-per-pixel */
"20 20 51 1 ",
"  c #040404",
". c #282828",
"X c #292929",
"o c #2A2A2A",
"O c #2D2D2D",
"+ c #3D3D3D",
"@ c #474747",
"# c #4B4B4B",
"$ c #4C4C4C",
"% c #4D4D4D",
"& c #4E4E4E",
"* c #545454",
"= c #555555",
"- c #565656",
"; c #595959",
": c #5B5B5B",
"> c #5E5E5E",
", c #616161",
"< c #626262",
"1 c #686868",
"2 c #707070",
"3 c #777777",
"4 c #797979",
"5 c #8C8C8C",
"6 c #939393",
"7 c #9C9C9C",
"8 c #AAAAAA",
"9 c #ABABAB",
"0 c #B4B4B4",
"q c #B5B5B5",
"w c #B7B7B7",
"e c #B9B9B9",
"r c #E1E1E1",
"t c #E8E8E8",
"y c #E9E9E9",
"u c #EAEAEA",
"i c #ECECEC",
"p c #EEEEEE",
"a c #F0F0F0",
"s c #F5F5F6",
"d c #F6F6F7",
"f c #F7F7F7",
"g c #F8F8F8",
"h c #F9F9F9",
"j c #FAFAFA",
"k c #FBFBFB",
"l c #FCFCFC",
"z c #FDFDFD",
"x c #FEFEFE",
"c c #FFFFFF",
"v c None",
/* pixels */
"vvvvvvvvvvvvvvvvvvvv",
"vvvvvvvvvvvvvvvvvvvv",
"vvvvvvvvvvvvvvvvvvvv",
"vvvvvvvvvvvvvvvvvvvv",
"vvvvvvvvvvvvvvvvvvvv",
"vvvvvvvvvvv75vvvvvvv",
"vvvvvffgvv64,,>>vvvv",
"vvvvlllllqq2----;vvv",
"vvvvlllllglr4@##%%vv",
"vvvkllllllllq>+.oovv",
"vvggggffgfffpuqO vvv",
"vvapuuuuuuuuuupvvvvv",
"vvve9999899988qvvvvv",
"vvvvv1vvvvvv1vvvvvvv",
"vvvvvvvvvvvvvvvvvvvv",
"vvvvvvvvvvvvvvvvvvvv",
"vvvvvvvvvvvvvvvvvvvv",
"vvvvvvvvvvvvvvvvvvvv",
"vvvvvvvvvvvvvvvvvvvv",
"vvvvvvvvvvvvvvvvvvvv"
};
