/* XPM */
static char *_9d[] = {
/* columns rows colors chars-per-pixel */
"20 20 85 1 ",
"  c #1B1B1B",
". c #1C1C1C",
"X c #222222",
"o c #232323",
"O c #16176E",
"+ c #07087A",
"@ c #1E2068",
"# c #434343",
"$ c #454545",
"% c #464646",
"& c #474747",
"* c #484848",
"= c #515151",
"- c #525252",
"; c #555555",
": c #575757",
"> c #5B5B5B",
", c #5C5C5C",
"< c #5F5F5F",
"1 c #636363",
"2 c #727272",
"3 c #737373",
"4 c #08098A",
"5 c #090A8B",
"6 c #13168A",
"7 c #14158A",
"8 c #010294",
"9 c #212289",
"0 c #242488",
"q c #0102A4",
"w c #0506A4",
"e c #090CA6",
"r c #0507AE",
"t c #0E11A8",
"y c #0000B4",
"u c #3637A7",
"i c #66668C",
"p c #67688C",
"a c #5C5EB3",
"s c #7677AA",
"d c #7879AB",
"f c #848484",
"g c #878787",
"h c #89898A",
"j c #8B8B94",
"k c #8C8C96",
"l c #919191",
"z c #959597",
"x c #9B9B9B",
"c c #9C9C9C",
"v c #9D9D9D",
"b c #8587AA",
"n c #A2A2A2",
"m c #A4A4A4",
"M c #ABABAB",
"N c #AEAEAE",
"B c #8D8FC4",
"V c #9A9BC5",
"C c #A6A8C8",
"Z c #C1C2DA",
"A c #D6D6D6",
"S c #D3D4DF",
"D c #DCDDDE",
"F c #E1E0E1",
"G c #E2E2E1",
"H c #E2E2E2",
"J c #E3E3E2",
"K c #E3E2E3",
"L c #E6E6E6",
"P c #E1E2E8",
"I c #E8E8E8",
"U c #EBEBEB",
"Y c #F3F3F2",
"T c #F5F5F5",
"R c #F6F6F6",
"E c #F6F6F8",
"W c #F8F8F8",
"Q c #F9F9F9",
"! c #FAFAFA",
"~ c #FBFBFB",
"^ c #FCFCFC",
"/ c #FDFEFE",
"( c #FEFEFE",
") c #FFFFFF",
"_ c None",
/* pixels */
"____________________",
"____________________",
"____________________",
"____________________",
"____________________",
"___________vf3______",
"_____RWWW_l3:>,,____",
"____W))))AAm,---:___",
"____))))))))N%#%%**_",
"___)W)W^WWCZHf1o..o_",
"__WWRRRPbSuaYRIh____",
"__ILHHHd+sBVDHHH____",
"___Mvkj9y0zpixm_____",
"_____O@6r7_44_______",
"_____q8____ew_______",
"_____t______________",
"____________________",
"____________________",
"____________________",
"____________________"
};
