/* XPM */
static char *_0d[] = {
/* columns rows colors chars-per-pixel */
"20 20 84 1 ",
"  c #242479",
". c #333378",
"X c #44447A",
"o c #555672",
"O c #616274",
"+ c #616275",
"@ c #6B6C78",
"# c #FF0606",
"$ c #FF3100",
"% c #FF3500",
"& c #FF2A27",
"* c #FF5C48",
"= c #FF7648",
"- c #FFB01D",
"; c #FFAB34",
": c #80807F",
"> c #FDB344",
", c #FDB54A",
"< c #FFB85B",
"1 c #FF9D64",
"2 c #FDAD76",
"3 c #FFC14B",
"4 c #FFC655",
"5 c #FDC168",
"6 c #FED071",
"7 c #050686",
"8 c #0A0C81",
"9 c #010190",
"0 c #050693",
"q c #090998",
"w c #080A9D",
"e c #262790",
"r c #0001A4",
"t c #090CA0",
"y c #0A0EA5",
"u c #0506A8",
"i c #0000B3",
"p c #51538D",
"a c #4345B0",
"s c #6769AE",
"d c #7B7CA7",
"f c #6D6EBD",
"g c #828281",
"h c #9496B7",
"j c #A5A6BA",
"k c #A6A7BB",
"l c #AEAFBB",
"z c #FAAEAC",
"x c #F5DEB6",
"c c #9092C3",
"v c #CBCBCB",
"b c #CCCCCB",
"n c #CCCCCC",
"m c #CDCDCC",
"M c #D5D6D7",
"N c #D7D7D7",
"B c #FAC4C2",
"V c #FED7D6",
"C c #DCDDE6",
"Z c #DFE0E6",
"A c #E3E4E8",
"S c #F2EBED",
"D c #FFFAEE",
"F c #EAEDF3",
"G c #EFF0F2",
"H c #F0F0F0",
"J c #F1F1F1",
"K c #F2F2F6",
"L c #F1F4F4",
"P c #F0F4F5",
"I c #F5F5F5",
"U c #F6F6F6",
"Y c #F6F6F7",
"T c #F8F8F8",
"R c #F9F9F9",
"E c #FAFAF9",
"W c #FAFAFA",
"Q c #FBFBFB",
"! c #FCFCFD",
"~ c #FDFDFD",
"^ c #FEFEFE",
"/ c #FFFFFE",
"( c #FFFFFF",
") c None",
/* pixels */
"))))))))))))))))))))",
"))))))))))))))))))))",
"))))))))))))))))))))",
"))))))))))))))))))))",
"))))))))))))))))))))",
"))))))IW)))))46)))))",
")))))W((())53-;<))))",
"))))W((((((D1%$=>)))",
")))I~(~(((LFV&#*,)))",
")))WRRTECFcsSBz2))))",
")))IHSLCphfaALLx))))",
")))Nbbmd9ejklbbM))))",
")))):Oo.iqOX @g)))))",
")))))87)t))0r)))))))",
")))))wu)))))y)))))))",
"))))))))))))))))))))",
"))))))))))))))))))))",
"))))))))))))))))))))",
"))))))))))))))))))))",
"))))))))))))))))))))"
};
