/* XPM */
static char *_0n[] = {
/* columns rows colors chars-per-pixel */
"20 20 89 1 ",
"  c #624C3B",
". c #654E3B",
"X c #654E3C",
"o c #664F3D",
"O c #69513F",
"+ c #08097E",
"@ c #0E107B",
"# c #3C3D7C",
"$ c #6C5442",
"% c #6C5646",
"& c #705642",
"* c #705743",
"= c #715743",
"- c #725844",
"; c #48497F",
": c #68687D",
"> c #6D6D7D",
", c #856C5A",
"< c #997A62",
"1 c #9B7B62",
"2 c #9B7C65",
"3 c #9C7E67",
"4 c #000087",
"5 c #1D1D84",
"6 c #161688",
"7 c #030496",
"8 c #02029B",
"9 c #05069C",
"0 c #0305A7",
"q c #070AA7",
"w c #0B0FA2",
"e c #090DA4",
"r c #0000BA",
"t c #54559B",
"y c #7A7A80",
"u c #636495",
"i c #4344AE",
"p c #5253B1",
"a c #6465A2",
"s c #808083",
"d c #868686",
"f c #8E8E8E",
"g c #9A9A9A",
"h c #A39287",
"j c #A8998E",
"k c #B29680",
"l c #B69F8D",
"z c #BAABA1",
"x c #C9AF9C",
"c c #CCB7A7",
"v c #C5B6AB",
"b c #CEBBAB",
"n c #D4BDAD",
"m c #CCC1B9",
"M c #D6C4B6",
"N c #9495C1",
"B c #A1A3C0",
"V c #A5A6C3",
"C c #A2A4C9",
"Z c #CFC9C3",
"A c #C6C6CC",
"S c #DED4CB",
"D c #C2C3D4",
"F c #D5D5D5",
"G c #D7D7D6",
"H c #D7D7D7",
"J c #DCDCDC",
"K c #D6D7E1",
"L c #E4E4E4",
"P c #F0ECE9",
"I c #F3F0EE",
"U c #ECEDF1",
"Y c #EFF0F0",
"T c #F3F2F2",
"R c #F3F3F3",
"E c #F5F5F4",
"W c #F5F5F5",
"Q c #F6F6F6",
"! c #F9F9F9",
"~ c #FAFAFA",
"^ c #FAFAFB",
"/ c #FBFBFB",
"( c #FAFBFC",
") c #FCFCFC",
"_ c #FCFCFD",
"` c #FDFDFD",
"' c #FEFEFE",
"] c #FFFFFF",
"[ c None",
/* pixels */
"[[[[[[[[[[[[[[[[[[[[",
"[[[[[[[[[[[[[[[[[[[[",
"[[[[[[[[[[[[[[[[[[[[",
"[[[[[[[[[[[[[[[[[[[[",
"[[[[[[[[[[[[[[[[[[[[",
"[[[[[[[[[[[nMbcx[[[[",
"[[[[[^]]][kl2<<2<[[[",
"[[[[^]]]]ISv,===-[[[",
"[[[^]]]]]]((b%$$O[[[",
"[[[(^^^^U^CCUzh$ [[[",
"[[^ETTEKuDipUWUj.[[[",
"[[LJFFFa4tVgAHFZ[[[[",
"[[[gd:>5r6>t#sf[[[[[",
"[[[[[+@[e[[78[[[[[[[",
"[[[[[09[[[[ee[[[[[[[",
"[[[[[[[[[[[[[[[[[[[[",
"[[[[[[[[[[[[[[[[[[[[",
"[[[[[[[[[[[[[[[[[[[[",
"[[[[[[[[[[[[[[[[[[[[",
"[[[[[[[[[[[[[[[[[[[["
};
