/* XPM */
static char *_1n[] = {
/* columns rows colors chars-per-pixel */
"20 20 93 2 ",
"   c #090909",
".  c #0A0A0A",
"X  c #1A1A1A",
"o  c #303030",
"O  c #313131",
"+  c #323232",
"@  c #373737",
"#  c #393939",
"$  c #4A4A4A",
"%  c #4B4B4B",
"&  c #4E4E4E",
"*  c #4F4F4F",
"=  c #505050",
"-  c #555555",
";  c #575757",
":  c #585858",
">  c #5D5D5D",
",  c #7F5E5D",
"<  c #616161",
"1  c #636767",
"2  c #646464",
"3  c #696969",
"4  c #6B6A68",
"5  c #7D7D7D",
"6  c #A83F3D",
"7  c #B63B39",
"8  c #FE0201",
"9  c #F80E0C",
"0  c #F7100D",
"q  c #E51817",
"w  c #FF1610",
"e  c #FF1515",
"r  c #FE1D13",
"t  c #FE1B14",
"y  c #FE1C16",
"u  c #FD231B",
"i  c #D93938",
"p  c #E42726",
"a  c #F42B2A",
"s  c #FE3D22",
"d  c #FC3938",
"f  c #FD5025",
"g  c #9A4D4A",
"h  c #DA7371",
"j  c #8C8C8C",
"k  c #949494",
"l  c #959595",
"z  c #979797",
"x  c #999999",
"c  c #BB9D9C",
"v  c #A0A0A0",
"b  c #B7ABAA",
"n  c #B6B9B9",
"m  c #B7B9B9",
"M  c #BBBBBB",
"N  c #F48381",
"B  c #C0ABAA",
"V  c #F6A6A5",
"C  c #C2C2C2",
"Z  c #C3C3C3",
"A  c #CFCFCF",
"S  c #D8D8D8",
"D  c #F1C1C0",
"F  c #F9C9C8",
"G  c #EFD4D4",
"H  c #F1D4D4",
"J  c #F9D3D2",
"K  c #F8D9D8",
"L  c #E3E5E5",
"P  c #ECEBEA",
"I  c #EDEFEF",
"U  c #EEEEEE",
"Y  c #EFF0F0",
"T  c #F0F0F0",
"R  c #F3F2F3",
"E  c #F3F3F3",
"W  c #F4F4F4",
"Q  c #F5F5F5",
"!  c #F7F7F7",
"~  c #F8F5F4",
"^  c #F8F7F7",
"/  c #F7FAFA",
"(  c #F8F8F8",
")  c #F9F9F9",
"_  c #FAFAFA",
"`  c #FBFBFB",
"'  c #F8FCFC",
"]  c #FDFDFD",
"[  c #FDFEFE",
"{  c #FDFFFF",
"}  c #FEFEFE",
"|  c #FFFFFF",
" . c None",
/* pixels */
" . . . . . . . . . . . . . . . . . . . .",
" . . . . . . . . . . . . . . . . . . . .",
" . . . . . . . . . . . . . . . . . . . .",
" . . . . . . . . . . . . . . . . . . . .",
" . . . . . . . . . . .x j  . . . . . . .",
" . . . . ._ _ _  . .x 5 3 2  . . . . . .",
" . . . ._ } } } Q v x > ; ; : :  . . . .",
" . . .Q } } } } ` R R C < % * * = =  . .",
" . . .Q } } } } } } } } l % @ o O O #  .",
" . ._ _ Q / K F J ~ / ' L S k X . .  . .",
" . .E I I G d e N P D V H Y Y  . . . . .",
" . .A M m h 8 i b B a p c m C  . . . . .",
" . . . ., q 0 g 4 7 0 6 2  . . . . . . .",
" . . . . .w t u  .t t  . . . . . . . . .",
" . . . . . .s  . . .f  . . . . . . . . .",
" . . . . . . . . . . . . . . . . . . . .",
" . . . . . . . . . . . . . . . . . . . .",
" . . . . . . . . . . . . . . . . . . . .",
" . . . . . . . . . . . . . . . . . . . .",
" . . . . . . . . . . . . . . . . . . . ."
};
