/* XPM */
static char *_3d[] = {
/* columns rows colors chars-per-pixel */
"20 20 96 2 ",
"   c #131313",
".  c #141414",
"X  c #1B1B1B",
"o  c #252525",
"O  c #3F3F3F",
"+  c #414141",
"@  c #424242",
"#  c #434343",
"$  c #444444",
"%  c #454545",
"&  c #505050",
"*  c #525252",
"=  c #535353",
"-  c #545454",
";  c #565656",
":  c #5A5A5A",
">  c #5B5B5B",
",  c #666666",
"<  c #717171",
"1  c #727272",
"2  c #7D7D7D",
"3  c #31349E",
"4  c #33369F",
"5  c #383B9E",
"6  c #3A3FA6",
"7  c #393FA8",
"8  c #3E44A9",
"9  c #3B48AE",
"0  c #4F528F",
"q  c #434692",
"w  c #636697",
"e  c #656896",
"r  c #464FA3",
"t  c #424BA8",
"y  c #424AA9",
"u  c #4E54A1",
"i  c #4850A5",
"p  c #525BAB",
"a  c #4350B1",
"s  c #616DBA",
"d  c #545AD0",
"f  c #7F85D3",
"g  c #7482DC",
"h  c #828282",
"j  c #828283",
"k  c #90908E",
"l  c #949494",
"z  c #989898",
"x  c #9B9B9B",
"c  c #A2A2A2",
"v  c #AFAFAF",
"b  c #B6B6B6",
"n  c #B9B9B9",
"m  c #8D97CC",
"M  c #8489D4",
"N  c #959AD2",
"B  c #B6B9C6",
"V  c #A5A8D4",
"C  c #B2B5DA",
"Z  c #B3B7DA",
"A  c #9FA9E5",
"S  c #AFB4F0",
"D  c #C4C6D0",
"F  c #D2D2D6",
"G  c #D7D7D7",
"H  c #DCDCDB",
"J  c #DFDFDE",
"K  c #C0C5E0",
"L  c #CCD1F0",
"P  c #DFE2F3",
"I  c #E2E2E2",
"U  c #E4E4E4",
"Y  c #E5E5E5",
"T  c #E7E8F2",
"R  c #ECEFFE",
"E  c #F0F0F1",
"W  c #F1F1F1",
"Q  c #F4F4F3",
"!  c #F5F5F3",
"~  c #F6F6F6",
"^  c #F7F7F7",
"/  c #F8F8F8",
"(  c #F8F8FB",
")  c #FAFAFA",
"_  c #FBFBFA",
"`  c #FBFBFB",
"'  c #FCFCFA",
"]  c #FDFDFB",
"[  c #F8F9FF",
"{  c #FCFBFC",
"}  c #FCFCFC",
"|  c #FDFDFD",
" . c #FDFDFE",
".. c #FEFEFE",
"X. c #FFFFFF",
"o. c None",
/* pixels */
"o.o.o.o.o.o.o.o.o.o.o.o.o.o.o.o.o.o.o.o.",
"o.o.o.o.o.o.o.o.o.o.o.o.o.o.o.o.o.o.o.o.",
"o.o.o.o.o.o.o.o.o.o.o.o.o.o.o.o.o.o.o.o.",
"o.o.o.o.o.o.o.o.o.o.o.o.o.o.o.o.o.o.o.o.",
"o.o.o.o.o.o.o.o.o.o.o.o.o.o.o.o.o.o.o.o.",
"o.o.o.o.o.o.o.o.o.o.o.x h 1 o.o.o.o.o.o.",
"o.o.o.o.o.X.` X.X.o.l 1 - > > > > o.o.o.",
"o.o.o.o.` X.X.X.X.J J v , * * * - - o.o.",
"o.o.o.~ ` X.X.X.X.R [ X.n % O + + + % o.",
"o.o.~ ` ` ` ` { L g A ^ Y c 2 o   . X o.",
"o.o./ ~ E T S P K s m E ! ~ E b o.o.o.o.",
"o.o.U H V M d M N B D C Z F G I o.o.o.o.",
"o.o.o.x 0 3 5 3 q h w 7 8 e k o.o.o.o.o.",
"o.o.o.o.r t 6 t i o.o.9 a o.o.o.o.o.o.o.",
"o.o.o.o.o.o.u p o.o.o.o.o.o.o.o.o.o.o.o.",
"o.o.o.o.o.o.o.o.o.o.o.o.o.o.o.o.o.o.o.o.",
"o.o.o.o.o.o.o.o.o.o.o.o.o.o.o.o.o.o.o.o.",
"o.o.o.o.o.o.o.o.o.o.o.o.o.o.o.o.o.o.o.o.",
"o.o.o.o.o.o.o.o.o.o.o.o.o.o.o.o.o.o.o.o.",
"o.o.o.o.o.o.o.o.o.o.o.o.o.o.o.o.o.o.o.o."
};
