/* XPM */
static char * 50d_sw888_hell100_20x20_xpm[] = {
"20 20 3 1",
" 	c None",
".	c #808080",
"+	c #7F7F7F",
"                    ",
"                    ",
"                    ",
"     ..     +.      ",
"   ++  ++.+.  +.    ",
"                    ",
"     ..     +.      ",
"   ++  ++.+.  +.    ",
"                    ",
"     ..     +.      ",
"   ++  ++.+.  +.    ",
"                    ",
"     ..     +.      ",
"   ++  ++.+.  +.    ",
"                    ",
"                    ",
"                    ",
"                    ",
"                    ",
"                    "};
