/* XPM */
static char * 50d_gray_zu_hell+127ktr+127_xpm[] = {
"20 20 2 1",
" 	c None",
".	c #FFFFFF",
"                    ",
"                    ",
"                    ",
"     ..     ..      ",
"   ..  .....  ..    ",
"                    ",
"     ..     ..      ",
"   ..  .....  ..    ",
"                    ",
"     ..     ..      ",
"   ..  .....  ..    ",
"                    ",
"     ..     ..      ",
"   ..  .....  ..    ",
"                    ",
"                    ",
"                    ",
"                    ",
"                    ",
"                    "};
